<?xml version="1.0" standalone="no"?>
<!DOCTYPE svg PUBLIC "-//W3C//DTD SVG 20010904//EN"
 "http://www.w3.org/TR/2001/REC-SVG-20010904/DTD/svg10.dtd">
<svg version="1.0" xmlns="http://www.w3.org/2000/svg"
 width="300.000000pt" height="300.000000pt" viewBox="0 0 300.000000 300.000000"
 preserveAspectRatio="xMidYMid meet">
<metadata>
Created by potrace 1.15, written by Peter Selinger 2001-2017
</metadata>
<g transform="translate(0.000000,300.000000) scale(0.100000,-0.100000)"
fill="#000000" stroke="none">
<path d="M1375 2744 c-308 -47 -543 -161 -740 -359 -492 -491 -492 -1279 0
-1770 172 -173 385 -287 635 -341 117 -26 370 -26 490 0 375 81 685 314 859
646 98 187 141 365 141 580 0 215 -43 393 -141 580 -144 275 -390 490 -679
595 -130 47 -234 65 -390 69 -80 3 -158 2 -175 0z m330 -518 c145 -39 295
-137 391 -256 95 -117 164 -293 164 -417 l0 -53 -370 0 -370 0 0 -376 0 -377
-67 6 c-298 28 -546 220 -644 498 -74 208 -51 445 62 635 44 75 178 210 251
253 77 45 166 80 247 97 82 17 252 12 336 -10z"/>
</g>
</svg>
